Coordinates
version=1
nRows=16
nColumns=22
inDegrees=yes

Units are S.I. units (second, meters, Newtons, ...)
If the header above contains a line with 'inDegrees', this indicates whether rotational values are in degrees (yes) or radians (no).

endheader
time	pelvis_tilt	pelvis_list	pelvis_rotation	pelvis_tx	pelvis_ty	pelvis_tz	hip_flexion_r	hip_adduction_r	hip_rotation_r	knee_angle_r	ankle_angle_r	subtalar_angle_r	hip_flexion_l	hip_adduction_l	hip_rotation_l	knee_angle_l	ankle_angle_l	subtalar_angle_l	lumbar_extension	lumbar_bending	lumbar_rotation
      3.58000000	     -0.54581016	     -1.38537673	     10.77792257	      0.16778731	      0.94846211	     -0.40427929	     30.44970205	      3.29425675	     -6.56918606	    -58.99118468	      8.72539748	     -4.53790393	      8.87274023	     -5.26821792	      3.59676213	    -21.60545919	     12.74656936	      2.63724004	     -9.41901961	     -1.05400622	     -4.86347649
      3.59000000	     -0.48868315	     -1.37700100	     10.24317340	      0.17498390	      0.94854062	     -0.40552896	     30.80557117	      2.99138483	     -7.40621728	    -56.87639115	      9.01019817	     -4.56544762	      8.05613105	     -5.32110459	      2.94381963	    -21.32819192	     13.09046445	      2.56129102	     -9.55093199	     -0.97167449	     -5.23095555
      3.60000000	     -0.40880752	     -1.31842858	      9.70983209	      0.18223484	      0.94850932	     -0.40666560	     31.02733689	      2.63683574	     -8.30287982	    -54.59617680	      9.21005850	     -4.58320729	      7.20794412	     -5.31851462	      2.28392136	    -21.06125191	     13.41276129	      2.50466625	     -9.71952012	     -0.94406432	     -5.61413488
      3.61000000	     -0.36493092	     -1.25670757	      9.18796772	      0.18952954	      0.94823681	     -0.40769200	     31.18474214	      2.26799240	     -9.29736882	    -52.15900754	      9.40529918	     -4.55770835	      6.41821232	     -5.29521096	      1.66969264	    -20.83484328	     13.77758547	      2.43706587	     -9.84269166	     -0.92801790	     -5.96926871
      3.62000000	     -0.30189924	     -1.14906691	      8.66590756	      0.19688673	      0.94783470	     -0.40861897	     31.22042082	      1.85561395	    -10.39234007	    -49.59007033	      9.53202555	     -4.50585529	      5.60955830	     -5.22131969	      1.03624910	    -20.63027513	     14.13157847	      2.39570689	     -9.99157618	     -0.95592960	     -6.31150939
      3.63000000	     -0.27697611	     -1.05009407	      8.15896240	      0.20431126	      0.94718529	     -0.40940793	     31.19956762	      1.46470426	    -11.59974574	    -46.89042817	      9.66471372	     -4.42995802	      4.86499388	     -5.14440999	      0.45484044	    -20.46715292	     14.54253640	      2.34023932	    -10.08463588	     -0.98211560	     -6.64864526
      3.64000000	     -0.22589109	     -0.90812015	      7.64768936	      0.21181877	      0.94641454	     -0.41008410	     31.06615019	      1.04696462	    -12.93791123	    -44.10824803	      9.75380464	     -4.33956134	      4.09623496	     -5.02295409	     -0.14418108	    -20.32874067	     14.94129211	      2.32733312	    -10.20476275	     -1.05053122	     -6.93917689
      3.65000000	     -0.20018922	     -0.77258410	      7.15210245	      0.21940398	      0.94542639	     -0.41060453	     30.88074564	      0.66856625	    -14.39811804	    -41.24494537	      9.87002649	     -4.24800705	      3.38072745	     -4.90391243	     -0.70766768	    -20.23553641	     15.38714569	      2.31023254	    -10.28124801	     -1.11842672	     -7.22421602
      3.66000000	     -0.17952205	     -0.62189546	      6.65760202	      0.22708300	      0.94426885	     -0.41098605	     30.63741908	      0.31891958	    -15.96036729	    -38.34237085	     10.01393803	     -4.16048015	      2.68161786	     -4.76704184	     -1.27078191	    -20.17128717	     15.84919371	      2.31370616	    -10.33854883	     -1.19986024	     -7.47829438
      3.67000000	     -0.17369335	     -0.47289854	      6.16829364	      0.23484558	      0.94293295	     -0.41119443	     30.36043547	      0.03000065	    -17.59376168	    -35.42358175	     10.19978927	     -4.08075290	      2.01529708	     -4.63258317	     -1.82211531	    -20.14004718	     16.33426976	      2.32359404	    -10.36441091	     -1.28254310	     -7.70097109
      3.68000000	     -0.19831122	     -0.33431496	      5.68359466	      0.24267243	      0.94140499	     -0.41121811	     30.08019143	     -0.17131022	    -19.21885239	    -32.51117878	     10.43335153	     -4.01018291	      1.40301480	     -4.51041125	     -2.36807891	    -20.14626818	     16.84857312	      2.31743232	    -10.34190877	     -1.35591623	     -7.91063347
      3.69000000	     -0.22799007	     -0.19118704	      5.18405559	      0.25056493	      0.93975149	     -0.41105117	     29.79186342	     -0.29811460	    -20.79505729	    -29.65623030	     10.68299797	     -3.94253771	      0.79632495	     -4.38616596	     -2.92977774	    -20.16124398	     17.35484269	      2.34281017	    -10.30353749	     -1.43387145	     -8.05757823
      3.70000000	     -0.26963765	     -0.04230456	      4.66288749	      0.25850653	      0.93798367	     -0.41068986	     29.51961048	     -0.34868834	    -22.24263540	    -26.89794582	     10.93853039	     -3.87139558	      0.19717122	     -4.25510509	     -3.49832291	    -20.17670231	     17.84267946	      2.42490310	    -10.24354534	     -1.51888562	     -8.13838884
      3.71000000	     -0.36313462	      0.08938628	      4.13944048	      0.26643062	      0.93604302	     -0.41015877	     29.31076544	     -0.30516394	    -23.45716951	    -24.24871458	     11.16978147	     -3.80825015	     -0.31825013	     -4.14168170	     -4.06474739	    -20.23747066	     18.35410342	      2.45809791	    -10.12093343	     -1.57754631	     -8.23287247
      3.72000000	     -0.46366284	      0.22778539	      3.59842480	      0.27438456	      0.93403710	     -0.40948184	     29.13351588	     -0.21969531	    -24.46363826	    -21.78369701	     11.37843638	     -3.75293557	     -0.83422849	     -4.01817827	     -4.62345998	    -20.29221863	     18.82909328	      2.52790578	     -9.98739638	     -1.63307679	     -8.28860210
      3.73000000	     -0.56701060	      0.36753944	      3.05216977	      0.28237972	      0.93199061	     -0.40868654	     28.98720793	     -0.11072434	    -25.25995857	    -19.54763041	     11.55456813	     -3.71367398	     -1.35141671	     -3.88918202	     -5.15461616	    -20.34654609	     19.27235496	      2.62900474	     -9.84741248	     -1.67323464	     -8.33451382
